<svg width="4290" height="1219" xmlns="http://www.w3.org/2000/svg" xmlns:xlink="http://www.w3.org/1999/xlink" xml:space="preserve" overflow="hidden"><g transform="translate(-55 -756)"><g><path d="M2922.65 1135.08C2911.69 1135.08 2900.73 1137.47 2889.76 1142.25 2878.8 1147.03 2868.24 1154 2858.09 1163.15 2847.94 1172.31 2838.56 1183.29 2829.93 1196.09 2821.31 1208.89 2814.28 1223.31 2808.83 1239.34L2783.5 1313.92C2778.75 1327.88 2775.23 1341.46 2772.95 1354.64 2770.67 1367.81 2770.5 1379.42 2772.46 1389.46 2774.41 1399.5 2779.1 1407.43 2786.52 1413.25 2793.95 1419.07 2805.3 1421.98 2820.58 1421.98 2843.14 1421.98 2866.04 1410.74 2889.29 1388.27 2912.54 1365.79 2932.91 1328.83 2950.39 1277.39 2967.97 1225.66 2974.09 1189 2968.76 1167.43 2963.44 1145.87 2948.07 1135.08 2922.65 1135.08ZM2129.62 1134.32C2082.81 1134.32 2044.4 1161.92 2014.39 1217.11L2011.95 1221.83 2173.3 1221.83 2174.92 1215.67C2187.76 1161.44 2172.66 1134.32 2129.62 1134.32ZM3157.84 1077.24 3242.48 1077.24 3246.52 1348.85 3425.32 1077.24 3505.61 1077.24 3234.33 1477.74C3218.63 1501.06 3203.99 1520.88 3190.42 1537.2 3176.84 1553.52 3163.15 1567.13 3149.36 1578.04 3135.56 1588.94 3121.67 1596.86 3107.66 1601.79 3093.66 1606.72 3078.79 1609.18 3063.04 1609.18 3053.78 1609.18 3044.8 1608.67 3036.09 1607.63 3027.38 1606.6 3016.37 1603.98 3003.08 1599.78L3024.97 1535.37 3043.01 1535.37C3050.13 1538.26 3056.27 1540.51 3061.43 1542.1 3066.6 1543.7 3071.16 1544.5 3075.14 1544.5 3088.12 1544.5 3099.46 1541.69 3109.14 1536.07 3118.83 1530.46 3130.72 1517.54 3144.8 1497.33L3172.2 1453.7ZM2613.19 1068.87C2630.54 1068.87 2647.12 1071 2662.94 1075.25 2678.75 1079.5 2692.93 1086.89 2705.46 1097.42L2680.51 1170.85 2661.43 1170.85C2651.79 1162.78 2640.07 1156.19 2626.27 1151.1 2612.47 1146 2597.88 1143.45 2582.52 1143.45 2565.59 1143.45 2549.42 1147.09 2534.01 1154.38 2518.61 1161.66 2504.13 1171.61 2490.58 1184.21 2477.03 1196.81 2465.02 1211.35 2454.57 1227.83 2444.12 1244.32 2435.82 1261.6 2429.68 1279.67L2361.67 1479.81 2282.52 1479.81 2419.33 1077.24 2491.88 1077.24 2474.25 1135.05 2476.54 1132.32C2477.67 1131.06 2478.91 1129.77 2480.26 1128.45 2491.03 1117.82 2503.43 1108.08 2517.45 1099.22 2531.47 1090.37 2546.62 1083.09 2562.91 1077.41 2579.19 1071.72 2595.95 1068.87 2613.19 1068.87ZM2154.14 1068.87C2180.22 1068.87 2201.52 1073.44 2218.03 1082.58 2234.54 1091.71 2246.16 1104.42 2252.9 1120.69 2259.64 1136.96 2262.28 1156.17 2260.81 1178.32 2259.34 1200.47 2254.34 1224.11 2245.8 1249.23L2233.65 1285 1988.69 1285 1985.18 1296.03C1980.89 1310.53 1977.88 1324.05 1976.17 1336.57 1973.88 1353.26 1974.57 1367.83 1978.24 1380.28 1981.91 1392.72 1988.79 1402.4 1998.89 1409.32 2008.98 1416.24 2023.78 1419.69 2043.28 1419.69 2061.35 1419.69 2080.7 1416.68 2101.35 1410.64 2122 1404.6 2143.69 1394.68 2166.43 1380.88L2185.85 1380.88 2161.7 1451.94C2136.89 1465.58 2113.68 1475.29 2092.06 1481.06 2070.44 1486.82 2045.49 1489.71 2017.21 1489.71 1985.5 1489.71 1960.01 1484.54 1940.74 1474.21 1921.47 1463.87 1907.76 1449.09 1899.6 1429.87 1891.45 1410.64 1888.37 1388.09 1890.37 1362.22 1892.37 1336.35 1898.67 1307.82 1909.26 1276.63 1919.97 1245.13 1933.05 1216.6 1948.52 1191.04 1963.99 1165.47 1981.96 1143.67 2002.43 1125.62 2022.9 1107.57 2045.78 1093.6 2071.05 1083.71 2096.33 1073.82 2124.02 1068.87 2154.14 1068.87ZM2954.8 1067.35C2984.27 1067.35 3006.45 1073.3 3021.34 1085.21 3036.23 1097.11 3045.73 1113.02 3049.85 1132.94 3053.97 1152.86 3053.83 1175.39 3049.44 1200.52 3045.04 1225.65 3038.15 1252.04 3028.75 1279.67 3020.56 1303.76 3009.77 1328.17 2996.38 1352.89 2982.99 1377.61 2967.12 1399.87 2948.78 1419.66 2930.43 1439.46 2909.79 1455.71 2886.86 1468.39 2863.92 1481.08 2838.73 1487.42 2811.28 1487.42 2790.1 1487.42 2772.23 1482.39 2757.69 1472.32 2750.42 1467.29 2744.58 1461.59 2740.15 1455.23L2737.12 1450.36 2683.14 1609.18 2604.76 1609.18 2785.54 1077.24 2861.94 1077.24 2853.94 1105.19 2859.72 1100.81C2869.46 1093.75 2879.61 1087.79 2890.18 1082.92 2900.76 1078.06 2911.75 1074.25 2923.17 1071.49 2934.59 1068.73 2945.13 1067.35 2954.8 1067.35ZM1598.72 949.397 1681.48 949.397 1650.63 1356.44 1637.93 1400.67 1657.47 1353.45 1896.96 949.397 1980.74 949.397 1654.77 1479.81 1565.59 1479.81ZM1213.49 949.397 1575.72 949.397 1551.93 1019.41 1411.14 1019.41 1254.68 1479.81 1174.01 1479.81 1330.48 1019.41 1189.69 1019.41Z" stroke="#000000" stroke-width="3" stroke-linecap="butt" stroke-linejoin="round" stroke-miterlimit="10" stroke-opacity="1" fill="#00A7E9" fill-rule="evenodd" fill-opacity="1"/><text fill="#000000" fill-opacity="0" font-family="Arial,Arial_MSFontService,sans-serif" font-size="659.787" direction="ltr" writing-mode="lr-tb" x="1174.01" y="1526.71">TVerpy</text><text fill="#00A7E9" fill-opacity="1" font-family="D2Coding,D2Coding_MSFontService,sans-serif" font-style="normal" font-variant="normal" font-weight="700" font-stretch="normal" font-size="138" text-anchor="start" direction="ltr" writing-mode="lr-tb" unicode-bidi="normal" text-decoration="none" transform="matrix(1 0 0 1 575.781 1854)">TVerpy</text><text fill="#747474" fill-opacity="1" font-family="D2Coding,D2Coding_MSFontService,sans-serif" font-style="oblique" font-variant="normal" font-weight="400" font-stretch="normal" font-size="138" text-anchor="start" direction="ltr" writing-mode="lr-tb" unicode-bidi="normal" text-decoration="none" transform="matrix(1 0 0 1 1074.22 1854)">A feature</text><text fill="#747474" fill-opacity="1" font-family="D2Coding,D2Coding_MSFontService,sans-serif" font-style="oblique" font-variant="normal" font-weight="400" font-stretch="normal" font-size="138" text-anchor="start" direction="ltr" writing-mode="lr-tb" unicode-bidi="normal" text-decoration="none" transform="matrix(1 0 0 1 1692.97 1854)">-</text><text fill="#747474" fill-opacity="1" font-family="D2Coding,D2Coding_MSFontService,sans-serif" font-style="oblique" font-variant="normal" font-weight="400" font-stretch="normal" font-size="138" text-anchor="start" direction="ltr" writing-mode="lr-tb" unicode-bidi="normal" text-decoration="none" transform="matrix(1 0 0 1 1761.72 1854)">rich </text><text fill="#747474" fill-opacity="1" font-family="D2Coding,D2Coding_MSFontService,sans-serif" font-style="oblique" font-variant="normal" font-weight="400" font-stretch="normal" font-size="138" text-anchor="start" direction="ltr" writing-mode="lr-tb" unicode-bidi="normal" text-decoration="none" transform="matrix(1 0 0 1 2105.47 1854)">TVer</text><text fill="#747474" fill-opacity="1" font-family="D2Coding,D2Coding_MSFontService,sans-serif" font-style="oblique" font-variant="normal" font-weight="400" font-stretch="normal" font-size="138" text-anchor="start" direction="ltr" writing-mode="lr-tb" unicode-bidi="normal" text-decoration="none" transform="matrix(1 0 0 1 2449.22 1854)">downloading </text><text fill="#747474" fill-opacity="1" font-family="D2Coding,D2Coding_MSFontService,sans-serif" font-style="oblique" font-variant="normal" font-weight="400" font-stretch="normal" font-size="138" text-anchor="start" direction="ltr" writing-mode="lr-tb" unicode-bidi="normal" text-decoration="none" transform="matrix(1 0 0 1 3274.22 1854)">platform</text></g></g></svg>